<svg width="12" height="12" viewBox="0 0 12 12" fill="none" xmlns="http://www.w3.org/2000/svg">
<path d="M5.5 0C3.01335 0 1 2.01595 1 4.5C1 6.1668 1.56229 6.68768 4.54541 11.4709C4.98569 12.1768 6.0148 12.1759 6.45456 11.4709C9.43926 6.68517 10 6.16648 10 4.5C10 2.01335 7.98405 0 5.5 0ZM5.5 10.875C2.5135 6.08639 2.125 5.78409 2.125 4.5C2.125 2.63604 3.63604 1.125 5.5 1.125C7.36396 1.125 8.875 2.63604 8.875 4.5C8.875 5.77859 8.51955 6.0334 5.5 10.875ZM3.625 4.5C3.625 3.46446 4.46446 2.625 5.5 2.625C6.53554 2.625 7.375 3.46446 7.375 4.5C7.375 5.53554 6.53554 6.375 5.5 6.375C4.46446 6.375 3.625 5.53554 3.625 4.5Z" fill="#212121"/>
</svg>
