<svg width="12" height="12" viewBox="0 0 12 12" fill="none" xmlns="http://www.w3.org/2000/svg">
<path d="M10.875 1.5H1.125C0.503672 1.5 0 2.00367 0 2.625V9.375C0 9.99633 0.503672 10.5 1.125 10.5H10.875C11.4963 10.5 12 9.99633 12 9.375V2.625C12 2.00367 11.4963 1.5 10.875 1.5ZM10.875 2.625V3.58137C10.3495 4.00931 9.51169 4.67475 7.72062 6.07723C7.32591 6.3877 6.54403 7.1336 6 7.12491C5.45606 7.1337 4.67393 6.38759 4.27938 6.07723C2.48859 4.67496 1.65059 4.00938 1.125 3.58137V2.625H10.875ZM1.125 9.375V5.02495C1.66205 5.45271 2.42365 6.05297 3.58448 6.96197C4.09676 7.36521 4.99388 8.25539 6 8.24998C7.00118 8.25539 7.88693 7.37813 8.41531 6.96216C9.57612 6.05318 10.3379 5.45276 10.875 5.02498V9.375H1.125Z" fill="#212121"/>
</svg>
