<svg width="12" height="12" viewBox="0 0 12 12" fill="none" xmlns="http://www.w3.org/2000/svg">
<g clip-path="url(#clip0_2_350)">
<path d="M11.3494 7.73388L8.96835 6.71318C8.7546 6.62228 8.51716 6.60307 8.29158 6.65842C8.066 6.71377 7.86442 6.8407 7.71702 7.02021L6.95061 7.95771C5.72117 7.28763 4.71068 6.27771 4.03991 5.04865L4.97741 4.28224C5.15692 4.13468 5.28383 3.93298 5.33917 3.70729C5.39452 3.48161 5.37532 3.24408 5.28444 3.03021L4.26538 0.650836C4.16702 0.419279 3.99018 0.229811 3.76594 0.115743C3.54171 0.00167448 3.28444 -0.0296897 3.03936 0.0271645L0.831785 0.535993C0.594913 0.589749 0.383424 0.722606 0.232177 0.912666C0.0809304 1.10273 -0.00104791 1.33864 -0.000245941 1.58154C-0.000245941 7.35326 4.67975 12.0019 10.4191 11.9995C10.662 12.0002 10.8978 11.9182 11.0878 11.7669C11.2778 11.6156 11.4106 11.4041 11.4642 11.1672L11.9728 8.95896C12.0289 8.71407 11.9971 8.45728 11.8832 8.23338C11.7693 8.00949 11.5803 7.8327 11.3494 7.73388ZM10.3746 10.8766C5.27507 10.8532 1.14819 6.72607 1.12475 1.62373L3.2503 1.13388L4.23678 3.43591L2.64093 4.74162C3.72819 7.06193 4.94225 8.27201 7.25811 9.3588L8.56335 7.76248L10.8647 8.74943L10.3746 10.8766Z" fill="#212121"/>
</g>
<defs>
<clipPath id="clip0_2_350">
<rect width="12" height="12" fill="white"/>
</clipPath>
</defs>
</svg>
